<svg width="24" height="24" viewBox="0 0 24 24" fill="none" xmlns="http://www.w3.org/2000/svg">
<path d="M12 0.333344C18.4433 0.333344 23.6667 5.55668 23.6667 12C23.6667 18.4433 18.4433 23.6667 12 23.6667C5.55672 23.6667 0.333374 18.4433 0.333374 12C0.333374 5.55668 5.55672 0.333344 12 0.333344ZM12.1864 16.6667C9.81172 16.6667 7.67383 17.6802 6.18159 19.2982C7.77716 20.572 9.79971 21.3333 12 21.3333C14.2978 21.3333 16.4015 20.503 18.0277 19.1261C16.5449 17.6086 14.4756 16.6667 12.1864 16.6667ZM12 2.66668C6.84538 2.66668 2.66671 6.84535 2.66671 12C2.66671 14.1124 3.36846 16.0608 4.55154 17.625C6.46583 15.5981 9.17839 14.3333 12.1864 14.3333C15.0848 14.3333 17.7089 15.5077 19.6088 17.4066C20.6947 15.8812 21.3334 14.0152 21.3334 12C21.3334 6.84535 17.1547 2.66668 12 2.66668ZM12 3.83334C14.5773 3.83334 16.6667 5.92268 16.6667 8.50001C16.6667 11.0773 14.5773 13.1667 12 13.1667C9.42271 13.1667 7.33337 11.0773 7.33337 8.50001C7.33337 5.92268 9.42271 3.83334 12 3.83334ZM12 6.16668C10.7113 6.16668 9.66671 7.21134 9.66671 8.50001C9.66671 9.78871 10.7113 10.8333 12 10.8333C13.2887 10.8333 14.3334 9.78871 14.3334 8.50001C14.3334 7.21134 13.2887 6.16668 12 6.16668Z" fill="#6B4EFF"/>
</svg>
