<svg width="14" height="14" viewBox="0 0 14 14" fill="none" xmlns="http://www.w3.org/2000/svg">
<g clip-path="url(#clip0_27_386)">
<path d="M12.8334 7H11.3867C11.1318 6.99946 10.8837 7.08243 10.6804 7.23624C10.4771 7.39004 10.3297 7.6062 10.2609 7.85167L8.89008 12.7283C8.88125 12.7586 8.86282 12.7852 8.83758 12.8042C8.81234 12.8231 8.78164 12.8333 8.75008 12.8333C8.71853 12.8333 8.68782 12.8231 8.66258 12.8042C8.63734 12.7852 8.61892 12.7586 8.61008 12.7283L5.39008 1.27167C5.38125 1.24138 5.36282 1.21477 5.33758 1.19584C5.31234 1.17691 5.28164 1.16667 5.25008 1.16667C5.21853 1.16667 5.18782 1.17691 5.16258 1.19584C5.13734 1.21477 5.11892 1.24138 5.11008 1.27167L3.73925 6.14834C3.67069 6.39284 3.52422 6.60831 3.32209 6.76201C3.11995 6.91572 2.87318 6.99928 2.61925 7H1.16675" stroke="#727272" stroke-width="1.16667" stroke-linecap="round" stroke-linejoin="round"/>
</g>
<defs>
<clipPath id="clip0_27_386">
<rect width="14" height="14" fill="white"/>
</clipPath>
</defs>
</svg>
