<svg width="32" height="32" viewBox="0 0 32 32" fill="none" xmlns="http://www.w3.org/2000/svg">
<path d="M5.56662 8.09892C2.7398 12.6603 3.19311 21.8916 8.72385 25.6976C13.92 29.2729 17.563 27.7309 24.8811 23.2464C25.5758 22.8206 26.1831 22.2559 26.6936 21.5892C26.1092 22.5205 25.3602 23.3003 24.4651 23.8489C17.1469 28.3334 13.5039 29.8753 8.30783 26.3001C2.6926 22.4364 2.31071 12.9807 5.28147 8.49638C5.37169 8.36021 5.46693 8.22779 5.56662 8.09892ZM5.69846 7.89384C8.66944 3.40991 16.8867 2.88464 22.9826 6.2415C29.3104 9.72637 29.7915 17.5428 26.6936 21.5892C29.3149 17.4111 28.5926 10.1631 22.5656 6.84404C16.6548 3.58909 8.74967 3.98411 5.56662 8.09892C5.60962 8.02954 5.65395 7.96103 5.69846 7.89384Z" fill="#DF7AF8"/>
<path d="M14.5611 4.41458C23.7805 4.4368 28.4024 13.184 27.7212 17.7505C26.2471 27.6298 23.5807 26.0207 17.2749 27.7632C9.94916 29.7876 4.41437 23.5928 3.96439 17.0972C3.51463 10.6019 8.01662 4.39896 14.5611 4.41458Z" fill="#F2A9FA"/>
<path d="M4.75739 16.6566C3.97129 9.24646 11.943 2.31922 18.2711 4.46812C24.9451 6.73462 23.0232 9.67189 26.773 14.7152C29.9963 19.0502 22.8001 27.2161 16.2662 27.2162C13.8404 27.2162 10.9938 26.907 9.30524 25.6136C8.43135 24.9442 7.96887 23.6673 7.31013 22.7591C5.89206 20.8042 5.04129 19.332 4.75739 16.6566ZM16.1041 6.03452C9.93243 6.03455 5.26813 10.1291 5.26813 16.0892C5.26821 19.3814 6.55728 19.1241 8.18513 23.1742C9.81308 27.2246 14.1056 26.5482 16.8677 26.5482C23.0393 26.5481 26.771 19.5216 26.7711 16.6029C26.7711 15.063 25.2201 13.8153 24.6685 12.5121C23.0854 8.77116 20.6811 6.03452 16.1041 6.03452Z" fill="#FBD6FF"/>
<path d="M26.7711 16.6028C26.7711 19.5215 23.0394 26.5485 16.8677 26.5485C14.1055 26.5485 9.81325 27.2249 8.1853 23.1744C6.55735 19.124 5.26855 19.3815 5.26855 16.0889C5.26855 10.1288 9.93253 6.03418 16.1042 6.03418C20.6813 6.03418 23.0852 8.77138 24.6683 12.5124C25.2198 13.8157 26.7711 15.0629 26.7711 16.6028Z" fill="#270D9F"/>
<path d="M25.0537 13.2956C25.9632 15.7758 24.9745 22.9006 19.7179 24.8084C17.3653 25.6622 13.9203 27.5638 11.2715 24.6251C8.62281 21.6864 7.60536 22.3036 6.57934 19.5057C4.72209 14.4409 7.41858 9.51981 12.6751 7.61204C16.5736 6.19719 19.4739 7.7801 21.9881 10.4697C22.8639 11.4067 24.5738 11.987 25.0537 13.2956Z" fill="#432F9F"/>
<path d="M13.9098 15.7615C16.2627 18.5624 15.5607 23.025 15.5607 23.025C15.5607 23.025 11.0439 22.9465 8.69103 20.1456C6.33816 17.3448 7.0402 12.8822 7.0402 12.8822C7.0402 12.8822 11.557 12.9607 13.9098 15.7615Z" fill="white" fill-opacity="0.7"/>
<path d="M16.8668 15.6904C17.9466 19.1854 15.5658 23.0246 15.5658 23.0246C15.5658 23.0246 11.4344 21.1973 10.3546 17.7023C9.27487 14.2074 11.6556 10.3681 11.6556 10.3681C11.6556 10.3681 15.787 12.1954 16.8668 15.6904Z" fill="white" fill-opacity="0.7"/>
<path d="M14.1659 15.7072C13.1321 19.216 15.5631 23.0237 15.5631 23.0237C15.5631 23.0237 19.6701 21.1423 20.7039 17.6335C21.7377 14.1246 19.3068 10.317 19.3068 10.317C19.3068 10.317 15.1997 12.1983 14.1659 15.7072Z" fill="white" fill-opacity="0.7"/>
<path d="M17.2062 15.7615C14.8534 18.5624 15.5554 23.025 15.5554 23.025C15.5554 23.025 20.0722 22.9465 22.4251 20.1456C24.7779 17.3448 24.0759 12.8822 24.0759 12.8822C24.0759 12.8822 19.5591 12.9607 17.2062 15.7615Z" fill="white" fill-opacity="0.7"/>
</svg>
