<svg width="14" height="14" viewBox="0 0 14 14" fill="none" xmlns="http://www.w3.org/2000/svg">
<g clip-path="url(#clip0_27_377)">
<path d="M7.00008 8.16667L6.41675 8.75001" stroke="#727272" stroke-width="1.16667" stroke-linecap="round" stroke-linejoin="round"/>
<path d="M8.02091 10.6458L7.29175 11.4742" stroke="#727272" stroke-width="1.16667" stroke-linecap="round" stroke-linejoin="round"/>
<path d="M10.3687 3.29817C8.6311 3.66321 7.03733 4.52608 5.7818 5.7815C4.52628 7.03692 3.66328 8.63062 3.2981 10.3682" stroke="#727272" stroke-width="1.16667" stroke-linecap="round" stroke-linejoin="round"/>
<path d="M10.9666 5.425C10.371 5.58745 9.86425 5.97985 9.55794 6.5159C9.25163 7.05194 9.17081 7.6877 9.33325 8.28334C9.4957 8.87897 9.8881 9.38567 10.4241 9.69198C10.9602 9.99829 11.596 10.0791 12.1916 9.91667" stroke="#727272" stroke-width="1.16667" stroke-linecap="round" stroke-linejoin="round"/>
<path d="M12.8123 12.0937C12.8401 12.1933 12.8409 12.2985 12.8146 12.3985C12.7884 12.4986 12.736 12.5898 12.6629 12.663C12.5898 12.7361 12.4985 12.7885 12.3985 12.8147C12.2984 12.841 12.1932 12.8401 12.0936 12.8123L1.59361 9.89567C1.51979 9.87512 1.45075 9.84022 1.39042 9.79298C1.33009 9.74573 1.27966 9.68706 1.24202 9.62033C1.20437 9.55359 1.18024 9.48009 1.171 9.40402C1.16177 9.32795 1.16761 9.25081 1.18819 9.177C1.718 7.26963 2.73203 5.53166 4.13182 4.13188C5.5316 2.7321 7.26957 1.71806 9.17694 1.18825C9.25075 1.16767 9.32789 1.16183 9.40396 1.17106C9.48002 1.1803 9.55353 1.20443 9.62026 1.24208C9.687 1.27972 9.74567 1.33015 9.79291 1.39048C9.84016 1.45081 9.87506 1.51985 9.89561 1.59367L12.8123 12.0937Z" stroke="#727272" stroke-width="1.16667" stroke-linecap="round" stroke-linejoin="round"/>
</g>
<defs>
<clipPath id="clip0_27_377">
<rect width="14" height="14" fill="white"/>
</clipPath>
</defs>
</svg>
