<svg width="22" height="19" viewBox="0 0 22 19" fill="none" xmlns="http://www.w3.org/2000/svg">
<path d="M11.5812 0.68627C11.2335 0.43791 10.7664 0.43791 10.4187 0.68627L0.918701 7.47198L2.08118 9.0994L10.9999 2.7289L19.9187 9.0994L21.0812 7.47198L11.5812 0.68627ZM18.5812 10.6863L11.5812 5.68627C11.2335 5.43791 10.7664 5.43791 10.4187 5.68627L3.4187 10.6863C3.15591 10.874 2.99994 11.177 2.99994 11.5V18C2.99994 18.5523 3.44765 19 3.99994 19H17.9999C18.5522 19 18.9999 18.5523 18.9999 18V11.5C18.9999 11.177 18.844 10.874 18.5812 10.6863ZM4.99994 17V12.0146L10.9999 7.7289L16.9999 12.0146V17H4.99994Z" fill="#6B4EFF"/>
</svg>
