<svg width="24" height="24" viewBox="0 0 24 24" fill="none" xmlns="http://www.w3.org/2000/svg">
<path d="M2.25012 12C2.25012 6.61406 6.61418 2.25 12.0001 2.25C13.4392 2.25 14.8079 2.56406 16.0361 3.12187C16.6032 3.37969 17.2689 3.13125 17.5267 2.56406C17.7845 1.99688 17.5361 1.33125 16.9689 1.07344C15.4501 0.384375 13.7673 0 12.0001 0C5.372 0 0.00012207 5.37188 0.00012207 12C0.00012207 18.6281 5.372 24 12.0001 24C18.6282 24 24.0001 18.6281 24.0001 12C24.0001 10.2328 23.6157 8.55 22.9267 7.03594C22.6689 6.46875 22.0032 6.22031 21.4361 6.47812C20.8689 6.73594 20.6204 7.40156 20.8782 7.96875C21.4361 9.19219 21.7501 10.5609 21.7501 12C21.7501 17.3859 17.3861 21.75 12.0001 21.75C6.61418 21.75 2.25012 17.3859 2.25012 12ZM12.0001 19.875C12.4974 19.875 12.9743 19.6775 13.3259 19.3258C13.6776 18.9742 13.8751 18.4973 13.8751 18C13.8751 17.5027 13.6776 17.0258 13.3259 16.6742C12.9743 16.3225 12.4974 16.125 12.0001 16.125C11.5028 16.125 11.0259 16.3225 10.6743 16.6742C10.3227 17.0258 10.1251 17.5027 10.1251 18C10.1251 18.4973 10.3227 18.9742 10.6743 19.3258C11.0259 19.6775 11.5028 19.875 12.0001 19.875ZM15.0001 6H16.1907L14.4704 7.72031C14.2548 7.93594 14.1939 8.25938 14.3064 8.53594C14.4189 8.8125 14.6954 9 15.0001 9H18.0001C18.4126 9 18.7501 8.6625 18.7501 8.25C18.7501 7.8375 18.4126 7.5 18.0001 7.5H16.8095L18.5298 5.77969C18.7454 5.56406 18.8064 5.24062 18.6939 4.96406C18.5814 4.6875 18.3048 4.5 18.0001 4.5H15.0001C14.5876 4.5 14.2501 4.8375 14.2501 5.25C14.2501 5.6625 14.5876 6 15.0001 6ZM19.5001 0.75C19.5001 1.1625 19.8376 1.5 20.2501 1.5H21.4407L19.7204 3.22031C19.5048 3.43594 19.4439 3.75937 19.5564 4.03594C19.6689 4.3125 19.9454 4.5 20.2501 4.5H23.2501C23.6626 4.5 24.0001 4.1625 24.0001 3.75C24.0001 3.3375 23.6626 3 23.2501 3H22.0595L23.7798 1.27969C23.9954 1.06406 24.0564 0.740625 23.9439 0.464062C23.8314 0.1875 23.5548 0 23.2501 0H20.2501C19.8376 0 19.5001 0.3375 19.5001 0.75ZM16.4814 11.8125C15.9845 11.8125 15.5486 11.6344 15.2907 11.3578C14.9345 10.9781 14.3439 10.9594 13.9642 11.3156C13.5845 11.6719 13.5657 12.2625 13.922 12.6422C14.6017 13.3688 15.572 13.6875 16.4814 13.6875C17.3907 13.6875 18.3611 13.3688 19.0407 12.6422C19.397 12.2625 19.3736 11.6719 18.9986 11.3156C18.6236 10.9594 18.0282 10.9828 17.672 11.3578C17.4142 11.6297 16.9782 11.8125 16.4814 11.8125ZM6.29075 11.3578C5.9345 10.9781 5.34387 10.9594 4.96418 11.3156C4.5845 11.6719 4.56575 12.2625 4.922 12.6422C5.60168 13.3688 6.572 13.6875 7.48137 13.6875C8.39075 13.6875 9.36106 13.3688 10.0407 12.6422C10.397 12.2625 10.3736 11.6719 9.99856 11.3156C9.62356 10.9594 9.02825 10.9828 8.672 11.3578C8.41418 11.6297 7.97825 11.8125 7.48137 11.8125C6.9845 11.8125 6.54856 11.6344 6.29075 11.3578Z" fill="black" fill-opacity="0.5"/>
</svg>
