<svg width="18" height="22" viewBox="0 0 18 22" fill="none" xmlns="http://www.w3.org/2000/svg">
<path d="M15.3643 6.50024C18.8788 10.0149 18.8787 15.7131 15.3643 19.2278C11.8495 22.7425 6.15049 22.7425 2.63577 19.2278C-0.878544 15.7131 -0.878635 10.0149 2.63577 6.50024L9.00003 0.135986L15.3643 6.50024ZM4.05081 7.91431C1.31714 10.648 1.31714 15.08 4.05081 17.8137C6.78449 20.5473 11.2167 20.5474 13.9502 17.8137C16.6835 15.0801 16.6836 10.6479 13.9502 7.91431L9.00003 2.96509L4.05081 7.91431ZM4.00003 12.5002C4.27617 12.5002 4.50003 12.7251 4.50003 13.0012C4.50011 13.0048 4.50066 13.0115 4.501 13.0208C4.50173 13.04 4.50259 13.0714 4.50589 13.1125C4.51253 13.1955 4.52685 13.3196 4.55471 13.4729C4.61077 13.7811 4.72305 14.2031 4.94729 14.6516C5.38828 15.5335 6.27604 16.5536 8.12112 17.0149C8.38891 17.0819 8.5522 17.3535 8.48538 17.6213C8.41833 17.889 8.14666 18.0524 7.87893 17.9856C5.72443 17.447 4.61182 16.2169 4.05276 15.0989C3.7772 14.5478 3.63933 14.0318 3.57034 13.6526C3.53582 13.4627 3.51879 13.3049 3.50979 13.1926C3.50532 13.1367 3.50224 13.0913 3.501 13.0588C3.5004 13.0429 3.50021 13.0295 3.50003 13.0198V13.0012C3.50003 13.0009 3.50003 13.0002 4.00003 13.0002H3.50003C3.50003 12.7241 3.72388 12.5002 4.00003 12.5002ZM9.12503 9.37524C9.47021 9.37524 9.75003 9.65507 9.75003 10.0002V11.8752H11.625C11.9702 11.8752 12.25 12.1551 12.25 12.5002C12.25 12.8454 11.9702 13.1252 11.625 13.1252H9.75003V15.0002C9.75003 15.3454 9.47021 15.6252 9.12503 15.6252C8.77987 15.6252 8.50003 15.3454 8.50003 15.0002V13.1252H6.62503C6.27987 13.1252 6.00003 12.8454 6.00003 12.5002C6.00003 12.1551 6.27987 11.8753 6.62503 11.8752H8.50003V10.0002C8.50003 9.65508 8.77987 9.37527 9.12503 9.37524Z" fill="#7A7A7A"/>
</svg>
