<svg width="24" height="24" viewBox="0 0 24 24" fill="none" xmlns="http://www.w3.org/2000/svg">
<path d="M7.61726 8.71233L10.8223 6.38373C11.1741 6.12735 11.6088 5.98543 12.0651 6.0008C13.1765 6.02813 14.1525 6.75668 14.492 7.82036C14.6783 8.40431 14.8482 8.79836 15.0018 9.0025C15.9141 10.2155 17.3656 11 19.0003 11V13C16.8256 13 14.8826 12.0083 13.5987 10.4526L12.9011 14.4085L14.9622 16.138L17.1854 22.246L15.306 22.93L13.2661 17.3256L9.87589 14.4808C9.32834 14.0382 9.03152 13.3192 9.16244 12.5767L9.67104 9.6923L8.9942 10.1841L6.86719 13.1116L5.24915 11.9361L7.60029 8.7L7.61726 8.71233ZM13.5003 5.5C12.3957 5.5 11.5003 4.60457 11.5003 3.5C11.5003 2.39543 12.3957 1.5 13.5003 1.5C14.6048 1.5 15.5003 2.39543 15.5003 3.5C15.5003 4.60457 14.6048 5.5 13.5003 5.5ZM10.5287 18.6813L7.31478 22.5116L5.7827 21.226L8.75787 17.6803L9.50439 15.5L11.2955 17L10.5287 18.6813Z" fill="black" fill-opacity="0.5"/>
</svg>
