<svg width="366" height="366" viewBox="0 0 366 366" fill="none" xmlns="http://www.w3.org/2000/svg">
<rect width="332.504" height="333.504" transform="translate(16 16)" fill="white"/>
<path d="M37.4468 310.011C37.7528 309.702 37.8858 309.331 37.8459 308.898C37.806 308.465 37.6215 308.042 37.2923 307.628C37.0516 307.326 36.7921 307.101 36.5138 306.952C36.2373 306.805 35.963 306.737 35.691 306.746C35.4208 306.758 35.1768 306.851 34.959 307.024C34.7768 307.17 34.6546 307.338 34.5925 307.529C34.5344 307.72 34.5169 307.919 34.54 308.126C34.5653 308.331 34.6103 308.531 34.6751 308.727C34.7421 308.92 34.8094 309.094 34.877 309.247L35.2425 310.089C35.3374 310.304 35.4305 310.553 35.5217 310.836C35.6147 311.122 35.6697 311.421 35.6868 311.734C35.7078 312.048 35.6606 312.358 35.545 312.665C35.4294 312.971 35.2116 313.251 34.8916 313.506C34.5227 313.8 34.1124 313.969 33.6606 314.013C33.2106 314.059 32.751 313.967 32.2816 313.738C31.814 313.511 31.3714 313.136 30.9537 312.611C30.5643 312.122 30.3061 311.636 30.1789 311.153C30.0535 310.672 30.0505 310.216 30.1699 309.787C30.2911 309.36 30.5277 308.985 30.8798 308.661L31.5594 309.514C31.3194 309.741 31.175 309.998 31.1265 310.284C31.082 310.57 31.1115 310.862 31.2151 311.161C31.3227 311.46 31.4845 311.745 31.7004 312.017C31.9517 312.332 32.2285 312.575 32.5307 312.744C32.8351 312.912 33.138 312.996 33.4392 312.996C33.7427 312.994 34.0189 312.894 34.2678 312.696C34.4945 312.515 34.6285 312.305 34.6698 312.065C34.7112 311.825 34.694 311.566 34.6183 311.289C34.5426 311.011 34.4425 310.726 34.318 310.433L33.889 309.402C33.6176 308.746 33.5002 308.15 33.5368 307.612C33.5735 307.075 33.8219 306.623 34.2819 306.256C34.6641 305.952 35.0797 305.79 35.5288 305.77C35.9818 305.75 36.427 305.853 36.8644 306.079C37.3059 306.305 37.7 306.635 38.0469 307.071C38.3973 307.511 38.6299 307.965 38.7447 308.433C38.8617 308.899 38.8643 309.34 38.7525 309.756C38.6424 310.174 38.4196 310.526 38.084 310.811L37.4468 310.011ZM35.7314 318.221L42.1423 312.3L42.8594 313.076L37.1372 318.361L39.8898 321.341L39.2011 321.978L35.7314 318.221ZM42.054 324.936L48.0172 318.564L51.863 322.162L51.2224 322.847L48.1482 319.97L46.1334 322.123L49.0084 324.814L48.3678 325.498L45.4928 322.808L43.4662 324.973L46.5902 327.897L45.9496 328.581L42.054 324.936ZM49.1634 331.464L54.6351 324.665L58.7384 327.967L58.1506 328.698L54.8706 326.058L53.0218 328.355L56.0893 330.824L55.5015 331.554L52.434 329.086L50.5745 331.396L53.9076 334.079L53.3199 334.809L49.1634 331.464ZM56.7087 337.433L61.711 330.281L64.1274 331.971C64.6884 332.364 65.0762 332.786 65.2907 333.238C65.5092 333.689 65.5848 334.145 65.5177 334.608C65.4506 335.071 65.2697 335.513 64.975 335.934C64.6803 336.356 64.3263 336.678 63.913 336.902C63.5021 337.128 63.0469 337.219 62.5474 337.174C62.0496 337.128 61.5224 336.91 60.9661 336.521L59.2341 335.309L59.7715 334.541L61.4755 335.733C61.8596 336.002 62.2145 336.151 62.5401 336.181C62.8657 336.211 63.1598 336.15 63.4225 335.998C63.6892 335.844 63.9227 335.625 64.123 335.338C64.3233 335.052 64.4488 334.758 64.4997 334.458C64.5529 334.159 64.5067 333.863 64.3612 333.57C64.2172 333.275 63.9509 332.992 63.5621 332.72L62.0397 331.655L57.5747 338.038L56.7087 337.433Z" fill="black"/>
<path d="M283.698 351.994L282.691 352.458L281.952 343.19L282.943 342.734L289.504 349.321L288.497 349.784L283.056 344.202L282.994 344.231L283.698 351.994ZM282.643 348.727L286.7 346.859L287.092 347.71L283.036 349.578L282.643 348.727ZM295.768 339.098L294.848 339.618C294.644 339.384 294.417 339.206 294.168 339.082C293.921 338.958 293.663 338.882 293.393 338.855C293.124 338.824 292.854 338.84 292.582 338.902C292.311 338.964 292.049 339.067 291.797 339.209C291.337 339.469 290.986 339.821 290.744 340.265C290.504 340.707 290.403 341.217 290.438 341.794C290.477 342.369 290.682 342.986 291.054 343.644C291.426 344.302 291.849 344.795 292.322 345.125C292.798 345.453 293.287 345.628 293.79 345.651C294.295 345.672 294.777 345.553 295.237 345.293C295.489 345.15 295.712 344.978 295.905 344.778C296.099 344.577 296.252 344.355 296.365 344.111C296.48 343.863 296.547 343.602 296.568 343.326C296.589 343.046 296.553 342.76 296.459 342.467L297.379 341.947C297.529 342.374 297.6 342.793 297.59 343.203C297.58 343.613 297.5 344.003 297.35 344.372C297.198 344.738 296.985 345.073 296.709 345.376C296.435 345.677 296.107 345.936 295.724 346.153C295.076 346.52 294.41 346.687 293.727 346.656C293.043 346.625 292.392 346.399 291.772 345.979C291.153 345.559 290.617 344.949 290.164 344.147C289.711 343.346 289.464 342.572 289.423 341.825C289.382 341.077 289.525 340.403 289.85 339.801C290.175 339.199 290.662 338.715 291.31 338.349C291.693 338.132 292.085 337.984 292.484 337.905C292.886 337.825 293.283 337.815 293.677 337.877C294.069 337.936 294.444 338.067 294.8 338.27C295.155 338.47 295.478 338.747 295.768 339.098ZM297.572 335.981L297.045 335.205L302.461 331.528L302.987 332.304L300.717 333.846L305.092 340.29L304.218 340.884L299.842 334.439L297.572 335.981ZM306.185 328.858L311.507 335.775L310.669 336.419L305.348 329.502L306.185 328.858ZM309.588 326.137L316.378 329.955L316.455 329.888L313.562 322.655L314.395 321.925L317.736 330.601L316.916 331.32L308.754 326.868L309.588 326.137ZM317.541 319.002L323.697 325.188L322.948 325.934L316.792 319.748L317.541 319.002ZM320.732 317.109L320.032 316.485L324.39 311.601L325.09 312.225L323.263 314.273L329.075 319.46L328.371 320.248L322.559 315.062L320.732 317.109ZM327.351 308.105L334.198 313.517L333.543 314.346L326.696 308.934L327.351 308.105ZM336.954 309.918L329.802 304.917L332.819 300.6L333.588 301.138L331.175 304.588L333.592 306.278L335.848 303.051L336.617 303.588L334.361 306.815L336.791 308.514L339.243 305.008L340.011 305.545L336.954 309.918ZM339.254 294.518C338.857 294.339 338.463 294.344 338.071 294.533C337.679 294.721 337.347 295.042 337.074 295.494C336.875 295.826 336.755 296.147 336.712 296.46C336.671 296.77 336.703 297.051 336.807 297.303C336.912 297.552 337.084 297.748 337.323 297.892C337.522 298.012 337.723 298.068 337.923 298.059C338.123 298.047 338.316 297.994 338.502 297.9C338.685 297.805 338.857 297.693 339.017 297.564C339.175 297.433 339.314 297.31 339.434 297.193L340.096 296.557C340.264 296.393 340.465 296.218 340.699 296.034C340.934 295.847 341.195 295.691 341.483 295.566C341.769 295.437 342.076 295.373 342.404 295.374C342.731 295.375 343.07 295.482 343.421 295.693C343.825 295.936 344.126 296.261 344.325 296.669C344.525 297.075 344.6 297.538 344.549 298.057C344.5 298.575 344.302 299.121 343.956 299.695C343.634 300.231 343.269 300.642 342.86 300.93C342.453 301.216 342.027 301.377 341.583 301.415C341.141 301.451 340.707 301.36 340.28 301.143L340.842 300.209C341.139 300.354 341.43 300.4 341.715 300.346C341.998 300.288 342.262 300.158 342.506 299.956C342.749 299.751 342.96 299.5 343.138 299.203C343.346 298.857 343.477 298.513 343.531 298.171C343.582 297.827 343.555 297.514 343.449 297.232C343.342 296.948 343.151 296.724 342.879 296.56C342.63 296.411 342.387 296.358 342.147 296.403C341.908 296.448 341.672 296.555 341.438 296.723C341.205 296.89 340.972 297.084 340.741 297.303L339.924 298.065C339.405 298.548 338.887 298.866 338.37 299.019C337.853 299.173 337.343 299.098 336.839 298.795C336.421 298.543 336.124 298.21 335.948 297.796C335.772 297.378 335.713 296.925 335.772 296.436C335.829 295.944 336.002 295.459 336.289 294.982C336.579 294.5 336.923 294.123 337.321 293.853C337.717 293.58 338.13 293.424 338.559 293.384C338.989 293.341 339.396 293.427 339.781 293.642L339.254 294.518Z" fill="black"/>
<path d="M304.009 28.2515L303.123 27.675C303.236 27.3861 303.29 27.1027 303.285 26.8246C303.282 26.548 303.23 26.2838 303.13 26.032C303.033 25.7793 302.895 25.5468 302.714 25.3345C302.534 25.1222 302.322 24.9369 302.079 24.7789C301.636 24.4906 301.162 24.3414 300.657 24.3312C300.154 24.3226 299.655 24.4671 299.16 24.7649C298.667 25.0643 298.214 25.5306 297.802 26.164C297.389 26.7973 297.146 27.4 297.072 27.9721C297 28.5458 297.07 29.0607 297.282 29.517C297.496 29.9748 297.824 30.3479 298.267 30.6361C298.51 30.7942 298.765 30.9127 299.032 30.9917C299.299 31.0707 299.567 31.1044 299.836 31.0928C300.108 31.0803 300.371 31.0195 300.626 30.9103C300.884 30.8003 301.121 30.6362 301.338 30.4179L302.223 30.9944C301.913 31.3248 301.574 31.5803 301.206 31.7609C300.837 31.9414 300.455 32.0501 300.058 32.0867C299.663 32.121 299.267 32.0856 298.872 31.9804C298.478 31.8768 298.097 31.7049 297.728 31.4647C297.104 31.0587 296.648 30.5452 296.361 29.9243C296.073 29.3034 295.973 28.6213 296.061 27.8781C296.148 27.1348 296.442 26.3775 296.944 25.6061C297.447 24.8346 298.02 24.2586 298.664 23.878C299.308 23.4974 299.973 23.3128 300.657 23.3242C301.341 23.3356 301.995 23.5443 302.619 23.9503C302.988 24.1905 303.299 24.4696 303.553 24.7875C303.81 25.1069 304.001 25.4555 304.129 25.8331C304.257 26.2083 304.314 26.6009 304.298 27.0108C304.283 27.4183 304.187 27.8319 304.009 28.2515ZM303.91 35.4688L303.035 34.7893L310.919 29.8613L311.78 30.5303L308.959 39.389L308.084 38.7095L310.53 31.3073L310.476 31.2655L303.91 35.4688ZM306.324 33.027L309.852 35.7659L309.277 36.5064L305.749 33.7675L306.324 33.027ZM311.433 41.3951L317.289 34.9237L318.072 35.6328L312.846 41.409L315.854 44.1309L315.225 44.826L311.433 41.3951ZM325.713 49.3205C325.044 49.9525 324.351 50.3779 323.635 50.5966C322.92 50.8154 322.231 50.8389 321.569 50.6673C320.906 50.4957 320.32 50.1393 319.808 49.5982C319.297 49.0571 318.975 48.451 318.841 47.78C318.708 47.109 318.771 46.4225 319.03 45.7205C319.289 45.0185 319.753 44.3515 320.422 43.7194C321.091 43.0874 321.784 42.662 322.499 42.4432C323.215 42.2245 323.904 42.201 324.566 42.3726C325.229 42.5442 325.815 42.9006 326.326 43.4417C326.838 43.9828 327.16 44.5888 327.293 45.2598C327.427 45.9308 327.364 46.6174 327.105 47.3194C326.846 48.0214 326.382 48.6884 325.713 49.3205ZM325.01 48.577C325.56 48.0581 325.937 47.5282 326.141 46.9874C326.347 46.4487 326.4 45.9317 326.3 45.4365C326.201 44.9433 325.971 44.5047 325.608 44.1205C325.245 43.7364 324.819 43.4801 324.33 43.3516C323.844 43.2252 323.325 43.2485 322.773 43.4217C322.223 43.5969 321.674 43.944 321.125 44.4629C320.575 44.9818 320.197 45.5106 319.991 46.0494C319.787 46.5901 319.734 47.1071 319.832 47.6003C319.933 48.0955 320.164 48.5352 320.527 48.9193C320.89 49.3035 321.315 49.5588 321.802 49.6852C322.29 49.8137 322.809 49.7903 323.359 49.6151C323.911 49.4419 324.461 49.0958 325.01 48.577ZM324.932 54.9559L331.759 49.5192L333.596 51.826C334.021 52.3594 334.278 52.8697 334.369 53.3571C334.461 53.8427 334.415 54.2933 334.23 54.7091C334.046 55.1248 333.752 55.4929 333.35 55.8132C332.948 56.1335 332.526 56.3354 332.084 56.4187C331.642 56.502 331.196 56.4444 330.748 56.246C330.301 56.0458 329.868 55.6812 329.446 55.1523L327.96 53.2856L328.707 52.6909L330.172 54.531C330.462 54.8955 330.749 55.1464 331.033 55.2836C331.318 55.4231 331.598 55.465 331.874 55.4093C332.153 55.354 332.429 55.2175 332.702 54.9998C332.976 54.7822 333.174 54.5408 333.297 54.2758C333.42 54.0107 333.448 53.7217 333.38 53.4088C333.315 53.0941 333.135 52.7523 332.841 52.3834L331.684 50.93L325.59 55.7826L324.932 54.9559ZM330.558 55.7271L328.829 59.8495L328.064 58.8894L329.815 54.7938L330.558 55.7271ZM338.597 58.3175L331.462 63.3435L330.854 62.4795L337.988 57.4536L338.597 58.3175ZM333.754 66.6824L341.141 62.0353L343.946 66.4936L343.152 66.9928L340.911 63.4291L338.415 64.9993L340.511 68.3321L339.718 68.8313L337.621 65.4985L335.11 67.0778L337.389 70.6992L336.595 71.1984L333.754 66.6824Z" fill="black"/>
<path d="M26.2233 65.1142C25.9302 65.0422 25.6466 65.0113 25.3726 65.0214C25.0977 65.0277 24.8359 65.0772 24.5874 65.1702C24.3403 65.2607 24.1108 65.3955 23.8988 65.5748C23.6868 65.7541 23.4976 65.9776 23.3309 66.2453C23.0577 66.6843 22.9226 67.154 22.9257 67.6545C22.9287 68.155 23.0849 68.6487 23.3942 69.1356C23.7034 69.6226 24.1789 70.0657 24.8204 70.465C25.462 70.8644 26.0703 71.094 26.6453 71.1541C27.2202 71.2141 27.7352 71.1314 28.1901 70.9059C28.645 70.6804 29.015 70.3385 29.3002 69.8803C29.5644 69.4558 29.7067 69.0256 29.7269 68.5898C29.7463 68.1502 29.6458 67.7363 29.4256 67.3482C29.2044 66.9563 28.8671 66.6192 28.4137 66.337L28.6427 66.098L27.2556 68.3266L26.4597 67.8312L28.216 65.0093L29.012 65.5047C29.6222 65.8845 30.0717 66.345 30.3606 66.8862C30.6511 67.425 30.7786 67.9996 30.7433 68.6101C30.7071 69.2166 30.5059 69.8142 30.1396 70.4027C29.7313 71.0587 29.2181 71.5391 28.6002 71.8438C27.9837 72.1461 27.3046 72.2588 26.5627 72.1819C25.8224 72.1026 25.0615 71.8197 24.28 71.3333C23.6939 70.9686 23.2157 70.5622 22.8454 70.1142C22.4741 69.6623 22.2134 69.1888 22.0631 68.6937C21.9128 68.1986 21.8727 67.6985 21.9428 67.1933C22.0129 66.6882 22.1959 66.1981 22.4916 65.7229C22.7348 65.3322 23.0205 65.0048 23.3489 64.7406C23.6763 64.4726 24.0299 64.2728 24.4097 64.1411C24.7886 64.0054 25.1819 63.9407 25.5896 63.9469C25.995 63.9515 26.3984 64.0319 26.7998 64.1881L26.2233 65.1142ZM33.8943 64.2745L26.8654 59.1015L27.4919 58.2503L33.7657 62.8676L36.1703 59.6003L36.9254 60.156L33.8943 64.2745ZM36.1912 47.3821L36.8845 46.5845L41.2454 50.3756C41.6957 50.767 42.0054 51.2226 42.1747 51.7424C42.3436 52.2582 42.3631 52.7965 42.2332 53.3574C42.1011 53.9163 41.8104 54.4542 41.3612 54.9709C40.912 55.4876 40.4199 55.8502 39.8847 56.0588C39.3474 56.2655 38.8107 56.3222 38.2745 56.2288C37.7381 56.1313 37.2448 55.8869 36.7945 55.4955L32.4336 51.7044L33.127 50.9068L37.4236 54.642C37.7452 54.9216 38.0929 55.0997 38.4668 55.1762C38.8385 55.2509 39.2099 55.2199 39.5809 55.0833C39.9517 54.9426 40.2964 54.6889 40.6151 54.3223C40.9338 53.9556 41.1371 53.579 41.2248 53.1922C41.3104 52.8036 41.2895 52.4316 41.1619 52.076C41.0341 51.7164 40.8094 51.3968 40.4878 51.1173L36.1912 47.3821ZM46.9516 40.2306L46.1921 40.9655C45.9358 40.7905 45.6715 40.6747 45.3992 40.618C45.129 40.5593 44.8599 40.5509 44.592 40.5927C44.3242 40.6305 44.0666 40.7137 43.8194 40.8422C43.5722 40.9707 43.3445 41.1358 43.1362 41.3373C42.7565 41.7047 42.5054 42.1336 42.3828 42.6238C42.2623 43.1121 42.292 43.6309 42.4718 44.1803C42.6537 44.7278 43.0074 45.273 43.5329 45.816C44.0584 46.3591 44.5918 46.7305 45.1329 46.9302C45.6762 47.128 46.1938 47.1746 46.6857 47.0702C47.1797 46.9638 47.6165 46.7269 47.9962 46.3594C48.2045 46.1579 48.3769 45.9357 48.5135 45.6928C48.65 45.4499 48.7426 45.1963 48.7911 44.9319C48.8397 44.6635 48.8392 44.3933 48.7894 44.1212C48.7397 43.8451 48.6325 43.5772 48.468 43.3173L49.2275 42.5824C49.4805 42.9582 49.654 43.3458 49.7479 43.7452C49.8418 44.1445 49.8624 44.5416 49.8097 44.9366C49.755 45.3294 49.6323 45.7072 49.4415 46.0697C49.2528 46.4302 49.0002 46.7636 48.6837 47.0698C48.1489 47.5874 47.5468 47.9171 46.8774 48.0588C46.2081 48.2005 45.5208 48.1461 44.8157 47.8954C44.1107 47.6448 43.4381 47.1887 42.798 46.5273C42.1579 45.8658 41.7241 45.1786 41.4967 44.4657C41.2693 43.7527 41.2374 43.0641 41.401 42.3998C41.5646 41.7354 41.9139 41.1445 42.4487 40.6268C42.7652 40.3206 43.1067 40.0791 43.4732 39.9023C43.8418 39.7235 44.2243 39.6143 44.6207 39.5745C45.0152 39.5328 45.4105 39.5654 45.8065 39.6724C46.2006 39.7773 46.5823 39.9633 46.9516 40.2306ZM56.6465 34.151C57.2263 34.8659 57.5983 35.5884 57.7624 36.3185C57.9265 37.0486 57.8981 37.7374 57.677 38.3849C57.4559 39.0324 57.0563 39.5905 56.4782 40.0593C55.9 40.5282 55.2714 40.8039 54.5922 40.8865C53.913 40.9691 53.2332 40.8547 52.5528 40.5433C51.8723 40.2319 51.2422 39.7188 50.6624 39.0038C50.0826 38.2889 49.7107 37.5664 49.5466 36.8363C49.3824 36.1062 49.4109 35.4174 49.632 34.7699C49.8531 34.1225 50.2527 33.5643 50.8308 33.0955C51.4089 32.6267 52.0376 32.351 52.7167 32.2684C53.3959 32.1858 54.0757 32.3001 54.7562 32.6115C55.4367 32.9229 56.0668 33.4361 56.6465 34.151ZM55.8522 34.7952C55.3762 34.2082 54.8763 33.7925 54.3525 33.5479C53.8308 33.3016 53.3193 33.2098 52.8179 33.2726C52.3187 33.3336 51.8639 33.5305 51.4535 33.8634C51.0431 34.1962 50.7554 34.6014 50.5904 35.079C50.4276 35.5549 50.4118 36.0743 50.5429 36.6373C50.6762 37.1986 50.9808 37.7727 51.4568 38.3597C51.9327 38.9466 52.4316 39.3632 52.9532 39.6096C53.477 39.8541 53.9885 39.9459 54.4877 39.8849C54.9891 39.8221 55.445 39.6243 55.8554 39.2915C56.2659 38.9586 56.5525 38.5543 56.7152 38.0785C56.8802 37.6009 56.8961 37.0814 56.7628 36.5202C56.6317 35.9571 56.3282 35.3821 55.8522 34.7952ZM62.4853 27.2651C62.2009 26.9362 61.8412 26.7748 61.4063 26.781C60.9714 26.7872 60.5352 26.9383 60.0976 27.2345C59.7776 27.4511 59.5327 27.6923 59.3627 27.9582C59.1952 28.2226 59.1056 28.4907 59.0942 28.7626C59.085 29.033 59.1585 29.2834 59.3145 29.514C59.4451 29.7069 59.6032 29.8417 59.7889 29.9184C59.9754 29.9912 60.1726 30.0241 60.3806 30.0171C60.5869 30.0078 60.79 29.9784 60.9898 29.929C61.188 29.8772 61.3661 29.8235 61.5241 29.768L62.3919 29.4689C62.6136 29.3909 62.8691 29.3174 63.1586 29.2484C63.4504 29.1778 63.7532 29.1461 64.0668 29.1534C64.3813 29.1567 64.6867 29.2279 64.9831 29.3668C65.2796 29.5058 65.5425 29.7447 65.7718 30.0835C66.0361 30.474 66.1726 30.8962 66.1813 31.35C66.1923 31.8022 66.0655 32.2534 65.8007 32.7036C65.5383 33.1522 65.1295 33.5644 64.5742 33.9402C64.0566 34.2905 63.5519 34.5103 63.0601 34.5996C62.5706 34.6874 62.1165 34.6551 61.6978 34.5028C61.2815 34.3489 60.9255 34.0839 60.6297 33.7077L61.5332 33.0963C61.7414 33.3532 61.986 33.517 62.267 33.5875C62.5488 33.6541 62.8426 33.6473 63.1486 33.5672C63.4553 33.4831 63.7522 33.3439 64.0392 33.1497C64.3733 32.9236 64.6366 32.6664 64.8293 32.3783C65.0203 32.0878 65.1273 31.7923 65.1505 31.4919C65.172 31.1892 65.0936 30.9061 64.9152 30.6426C64.7528 30.4026 64.5536 30.2527 64.3176 30.1929C64.0816 30.1331 63.8223 30.1302 63.5398 30.1842C63.2573 30.2382 62.9651 30.3158 62.6633 30.4172L61.602 30.765C60.9275 30.9849 60.3236 31.0557 59.7904 30.9774C59.2572 30.8992 58.8258 30.6166 58.4962 30.1296C58.2223 29.7249 58.0929 29.298 58.1079 28.8487C58.1236 28.3955 58.2608 27.9596 58.5195 27.541C58.7789 27.1184 59.1392 26.7511 59.6003 26.439C60.0662 26.1237 60.5368 25.927 61.0121 25.8488C61.4859 25.7683 61.9258 25.7999 62.3318 25.9436C62.7402 26.0857 63.0737 26.3352 63.3322 26.6919L62.4853 27.2651ZM70.1196 30.0743L65.7134 22.541L70.2599 19.8818L70.7332 20.691L67.099 22.8167L68.5878 25.3621L71.9866 23.3742L72.4599 24.1834L69.0611 26.1713L70.5585 28.7315L74.2516 26.5715L74.7249 27.3807L70.1196 30.0743Z" fill="black"/>
<path d="M174.569 326.559L173.51 339.999C173.195 339.975 172.881 339.947 172.567 339.921L173.626 326.484L174.569 326.559ZM163.301 325.224L161.189 338.552C160.878 338.503 160.567 338.454 160.256 338.403L162.367 325.076L163.301 325.224ZM151.688 322.896L152.147 323.005L148.993 336.135C148.687 336.061 148.38 335.988 148.074 335.913L151.229 322.784L151.688 322.896ZM141.227 319.925L137.052 332.771C136.752 332.674 136.453 332.573 136.154 332.474L140.327 319.633L141.227 319.925ZM130.558 315.988L125.391 328.458C125.1 328.337 124.808 328.218 124.518 328.096L129.685 315.626L130.558 315.988ZM119.831 311.022L120.253 311.237L114.13 323.253C113.849 323.109 113.57 322.964 113.29 322.818L119.41 310.808L119.831 311.022ZM110.331 305.68L103.294 317.16C103.026 316.995 102.757 316.831 102.489 316.664L109.525 305.187L110.331 305.68ZM100.896 299.375L92.9922 310.254C92.7376 310.068 92.4848 309.88 92.2314 309.693L100.132 298.819L100.896 299.375ZM91.9668 292.335L83.2451 302.544C83.0054 302.339 82.7648 302.134 82.5264 301.928L91.2471 291.721L91.9668 292.335ZM83.6338 284.632L74.1475 294.117C73.925 293.894 73.7045 293.669 73.4834 293.445L82.9658 283.964L83.6338 284.632ZM75.915 276.281L65.7207 284.985C65.5161 284.746 65.3116 284.506 65.1084 284.265L75.3008 275.562L75.915 276.281ZM68.8906 267.369L58.0488 275.246C57.8635 274.991 57.679 274.735 57.4951 274.479L68.335 266.604L68.8906 267.369ZM62.5732 257.913L51.1475 264.913C50.9829 264.644 50.8192 264.375 50.6562 264.105L62.0791 257.107L62.5732 257.913ZM56.8145 247.592L57.0293 248.014L45.0928 254.095C44.9497 253.814 44.8084 253.532 44.667 253.25L56.5996 247.171L56.8145 247.592ZM52.2686 237.686L39.8984 242.808C39.7781 242.516 39.6577 242.225 39.5391 241.933L51.9072 236.812L52.2686 237.686ZM48.3418 227.039L35.6191 231.173C35.5222 230.873 35.4282 230.572 35.333 230.271L48.0498 226.14L48.3418 227.039ZM45.1445 215.635L45.2559 216.095L32.2715 219.21C32.1986 218.903 32.1238 218.597 32.0527 218.29L45.0352 215.176L45.1445 215.635ZM43.042 204.966L29.8809 207.05C29.8324 206.739 29.785 206.427 29.7383 206.115L42.8945 204.032L43.042 204.966ZM41.7061 193.672L28.4512 194.714C28.4272 194.4 28.4069 194.085 28.3848 193.771L41.6318 192.729L41.7061 193.672ZM41.2607 182.334H27.9902C27.9906 182.018 27.9938 181.703 27.9961 181.388H41.2607V182.334ZM41.7822 170.027L41.708 170.971L28.4863 169.929C28.5112 169.614 28.5378 169.3 28.5645 168.985L41.7822 170.027ZM43.1895 158.769L43.042 159.702L29.9443 157.627C29.9937 157.316 30.0416 157.004 30.0928 156.693L43.1895 158.769ZM45.4814 147.63L45.3721 148.089L45.2607 148.549L32.3691 145.452C32.4429 145.146 32.5172 144.839 32.5928 144.533L45.4814 147.63ZM48.6338 136.729L48.4873 137.179L48.3418 137.628L35.7393 133.533C35.8371 133.233 35.9366 132.934 36.0361 132.635L48.6338 136.729ZM52.6396 126.086L52.2783 126.959L40.0527 121.894C40.1738 121.603 40.2942 121.312 40.417 121.021L52.6396 126.086ZM57.458 115.812L57.2441 116.232L57.0293 116.654L45.2559 110.655C45.3995 110.375 45.5462 110.096 45.6914 109.816L57.458 115.812ZM63.0801 105.927L62.5859 106.732L51.3438 99.8418C51.509 99.5734 51.673 99.3044 51.8398 99.0371L63.0801 105.927ZM69.4473 96.5332L68.8906 97.2979L58.2412 89.5605C58.427 89.3059 58.6155 89.0533 58.8027 88.7998L69.4473 96.5332ZM76.5459 87.6484L76.2383 88.0078L75.9316 88.3672L65.9404 79.833C66.1456 79.5935 66.3491 79.3525 66.5557 79.1143L76.5459 87.6484ZM84.3027 79.3672L83.6338 80.0352L74.3516 70.752C74.5746 70.5293 74.8001 70.3092 75.0244 70.0879L84.3027 79.3672ZM92.7051 71.7021L91.9854 72.3164L83.4668 62.3408C83.7066 62.1362 83.9455 61.9307 84.1865 61.7275L92.7051 71.7021ZM101.662 64.7363L100.897 65.292L93.1865 54.6787C93.4412 54.4937 93.6973 54.3105 93.9531 54.127L101.662 64.7363ZM111.159 58.4805L110.353 58.9746L103.498 47.7881C103.767 47.6232 104.036 47.4582 104.306 47.2949L111.159 58.4805ZM121.096 53.001L120.675 53.2158L120.253 53.4307L114.295 41.7373C114.576 41.5942 114.857 41.452 115.139 41.3105L121.096 53.001ZM131.454 48.3076L130.581 48.6699L125.56 36.5449C125.851 36.4244 126.142 36.3034 126.434 36.1846L131.454 48.3076ZM142.126 44.4512L141.227 44.7432L137.172 32.2637C137.471 32.1666 137.772 32.0729 138.072 31.9775L142.126 44.4512ZM153.092 41.4365L152.632 41.5459L152.172 41.6572L149.112 28.9102C149.419 28.8369 149.726 28.7629 150.033 28.6914L153.092 41.4365ZM164.235 39.2959L163.301 39.4434L161.252 26.5127C161.563 26.4638 161.875 26.4142 162.187 26.3672L164.235 39.2959ZM175.537 38.0332L174.594 38.1074L173.569 25.0703C173.883 25.046 174.198 25.0244 174.513 25.002L175.537 38.0332Z" fill="#705FE0" fill-opacity="0.3"/>
<path d="M188.958 326.559L190.018 339.999C190.332 339.975 190.646 339.947 190.96 339.921L189.901 326.484L188.958 326.559ZM200.227 325.224L202.338 338.552C202.649 338.503 202.961 338.454 203.271 338.403L201.16 325.076L200.227 325.224ZM211.84 322.896L211.38 323.005L214.534 336.135C214.841 336.061 215.147 335.988 215.453 335.913L212.299 322.784L211.84 322.896ZM222.301 319.925L226.476 332.771C226.775 332.674 227.074 332.573 227.373 332.474L223.2 319.633L222.301 319.925ZM232.97 315.988L238.137 328.458C238.428 328.337 238.72 328.218 239.01 328.096L233.843 315.626L232.97 315.988ZM243.696 311.022L243.274 311.237L249.397 323.253C249.678 323.109 249.958 322.964 250.237 322.818L244.117 310.808L243.696 311.022ZM253.196 305.68L260.233 317.16C260.502 316.995 260.771 316.831 261.038 316.664L254.002 305.187L253.196 305.68ZM262.631 299.375L270.535 310.254C270.79 310.068 271.042 309.88 271.296 309.693L263.396 298.819L262.631 299.375ZM271.561 292.335L280.282 302.544C280.522 302.339 280.763 302.134 281.001 301.928L272.28 291.721L271.561 292.335ZM279.894 284.632L289.38 294.117C289.602 293.894 289.823 293.669 290.044 293.445L280.562 283.964L279.894 284.632ZM287.612 276.281L297.807 284.985C298.011 284.746 298.216 284.506 298.419 284.265L288.227 275.562L287.612 276.281ZM294.637 267.369L305.479 275.246C305.664 274.991 305.848 274.735 306.032 274.479L295.192 266.604L294.637 267.369ZM300.954 257.913L312.38 264.913C312.544 264.644 312.708 264.375 312.871 264.105L301.448 257.107L300.954 257.913ZM306.713 247.592L306.498 248.014L318.435 254.095C318.578 253.814 318.719 253.532 318.86 253.25L306.928 247.171L306.713 247.592ZM311.259 237.686L323.629 242.808C323.749 242.516 323.87 242.225 323.988 241.933L311.62 236.812L311.259 237.686ZM315.186 227.039L327.908 231.173C328.005 230.873 328.099 230.572 328.194 230.271L315.478 226.14L315.186 227.039ZM318.383 215.635L318.271 216.095L331.256 219.21C331.329 218.903 331.404 218.597 331.475 218.29L318.492 215.176L318.383 215.635ZM320.485 204.966L333.646 207.05C333.695 206.739 333.742 206.427 333.789 206.115L320.633 204.032L320.485 204.966ZM321.821 193.672L335.076 194.714C335.1 194.4 335.12 194.085 335.143 193.771L321.896 192.729L321.821 193.672ZM322.267 182.334H335.537C335.537 182.018 335.533 181.703 335.531 181.388H322.267V182.334ZM321.745 170.027L321.819 170.971L335.041 169.929C335.016 169.614 334.99 169.3 334.963 168.985L321.745 170.027ZM320.338 158.769L320.485 159.702L333.583 157.627C333.534 157.316 333.486 157.004 333.435 156.693L320.338 158.769ZM318.046 147.63L318.155 148.089L318.267 148.549L331.158 145.452C331.084 145.146 331.01 144.839 330.935 144.533L318.046 147.63ZM314.894 136.729L315.04 137.179L315.186 137.628L327.788 133.533C327.69 133.233 327.591 132.934 327.491 132.635L314.894 136.729ZM310.888 126.086L311.249 126.959L323.475 121.894C323.354 121.603 323.233 121.312 323.11 121.021L310.888 126.086ZM306.069 115.812L306.283 116.232L306.498 116.654L318.271 110.655C318.128 110.375 317.981 110.096 317.836 109.816L306.069 115.812ZM300.447 105.927L300.941 106.732L312.184 99.8418C312.018 99.5734 311.854 99.3044 311.688 99.0371L300.447 105.927ZM294.08 96.5332L294.637 97.2979L305.286 89.5605C305.1 89.3059 304.912 89.0533 304.725 88.7998L294.08 96.5332ZM286.981 87.6484L287.289 88.0078L287.596 88.3672L297.587 79.833C297.382 79.5935 297.178 79.3525 296.972 79.1143L286.981 87.6484ZM279.225 79.3672L279.894 80.0352L289.176 70.752C288.953 70.5293 288.727 70.3092 288.503 70.0879L279.225 79.3672ZM270.822 71.7021L271.542 72.3164L280.061 62.3408C279.821 62.1362 279.582 61.9307 279.341 61.7275L270.822 71.7021ZM261.865 64.7363L262.63 65.292L270.341 54.6787C270.086 54.4937 269.83 54.3105 269.574 54.127L261.865 64.7363ZM252.368 58.4805L253.175 58.9746L260.029 47.7881C259.76 47.6232 259.492 47.4582 259.222 47.2949L252.368 58.4805ZM242.432 53.001L242.853 53.2158L243.274 53.4307L249.232 41.7373C248.952 41.5942 248.67 41.452 248.389 41.3105L242.432 53.001ZM232.073 48.3076L232.946 48.6699L237.968 36.5449C237.677 36.4244 237.386 36.3034 237.094 36.1846L232.073 48.3076ZM221.401 44.4512L222.301 44.7432L226.355 32.2637C226.056 32.1666 225.755 32.0729 225.455 31.9775L221.401 44.4512ZM210.436 41.4365L210.896 41.5459L211.355 41.6572L214.415 28.9102C214.108 28.8369 213.802 28.7629 213.494 28.6914L210.436 41.4365ZM199.292 39.2959L200.227 39.4434L202.275 26.5127C201.964 26.4638 201.653 26.4142 201.341 26.3672L199.292 39.2959ZM187.99 38.0332L188.934 38.1074L189.958 25.0703C189.644 25.046 189.329 25.0244 189.015 25.002L187.99 38.0332Z" fill="#705FE0" fill-opacity="0.3"/>
<path d="M168.735 165.907C192.515 134.307 203.178 67.4407 55.598 52.7697L168.735 165.907Z" fill="#B7AFEF"/>
<path d="M168.888 165.754C134.981 191.841 64.8839 205.735 55.7509 52.6168L168.888 165.754Z" fill="#A99FEC"/>
<path d="M168.735 197.961C192.515 229.56 203.178 296.427 55.598 311.098L168.735 197.961Z" fill="#95CFFF"/>
<path d="M168.888 198.114C134.981 172.027 64.8839 158.133 55.7509 311.251L168.888 198.114Z" fill="#A7D7FF"/>
<path d="M196.77 165.907C172.99 134.307 162.326 67.4407 309.907 52.7697L196.77 165.907Z" fill="#F9C46E"/>
<path d="M196.617 165.754C230.524 191.841 300.621 205.735 309.754 52.6168L196.617 165.754Z" fill="#FACE86"/>
<path d="M196.77 197.961C172.99 229.56 162.326 296.427 309.907 311.098L196.77 197.961Z" fill="#DFB3F2"/>
<path d="M196.617 198.114C230.524 172.027 300.621 158.133 309.754 311.251L196.617 198.114Z" fill="#DBA6F2"/>
<line x1="32" y1="181.9" x2="332" y2="181.9" stroke="#DADADA"/>
<circle cx="70" cy="70" r="69.5" transform="matrix(1 0 0 -1 112 251)" stroke="white" stroke-opacity="0.22"/>
<line x1="181.5" y1="332" x2="181.5" y2="32" stroke="#DADADA"/>
<g filter="url(#filter0_f_1_520)">
<circle cx="35" cy="35" r="35" transform="matrix(1 0 0 -1 147 216)" fill="#705FE0" fill-opacity="0.74"/>
</g>
<g filter="url(#filter1_i_1_520)">
<circle cx="35" cy="35" r="35" transform="matrix(1 0 0 -1 147 216)" fill="white"/>
</g>
<defs>
<filter id="filter0_f_1_520" x="105" y="104" width="154" height="154" filterUnits="userSpaceOnUse" color-interpolation-filters="sRGB">
<feFlood flood-opacity="0" result="BackgroundImageFix"/>
<feBlend mode="normal" in="SourceGraphic" in2="BackgroundImageFix" result="shape"/>
<feGaussianBlur stdDeviation="21" result="effect1_foregroundBlur_1_520"/>
</filter>
<filter id="filter1_i_1_520" x="147" y="146" width="70" height="70" filterUnits="userSpaceOnUse" color-interpolation-filters="sRGB">
<feFlood flood-opacity="0" result="BackgroundImageFix"/>
<feBlend mode="normal" in="SourceGraphic" in2="BackgroundImageFix" result="shape"/>
<feColorMatrix in="SourceAlpha" type="matrix" values="0 0 0 0 0 0 0 0 0 0 0 0 0 0 0 0 0 0 127 0" result="hardAlpha"/>
<feOffset/>
<feGaussianBlur stdDeviation="0.5"/>
<feComposite in2="hardAlpha" operator="arithmetic" k2="-1" k3="1"/>
<feColorMatrix type="matrix" values="0 0 0 0 0 0 0 0 0 0 0 0 0 0 0 0 0 0 1 0"/>
<feBlend mode="normal" in2="shape" result="effect1_innerShadow_1_520"/>
</filter>
</defs>
</svg>
